PathFileType	4	(X/Y/Z)	/home/abdul/Desktop/myosuite/custom_workspace/IK/output/S11_12_3.trc
DataRate	CameraRate	NumFrames	NumMarkers	Units	OrigDataRate	OrigDataStartFrame	OrigNumFrames
200.0	200.0	33	3	mm	200.0	742	1976
Frame#	Time	V_Shoulder			V_Elbow			V_Wrist		
		X1	Y1	Z1	X2	Y2	Z2	X3	Y3	Z3

742	3.705	-95.55322473169336	539.6651944122591	279.1695908443708	-243.6353856710705	367.12766362530687	24.165178401356435	-96.22037563841913	155.60877611353456	69.43047321336093
743	3.71	-95.5119488204485	539.6372599356008	279.22495113419	-243.57186379064663	367.10657282472664	24.173394059806633	-96.14510411299	155.53133673833136	69.36069854530918
744	3.715	-95.47075308256704	539.6091128709924	279.27997565541637	-243.507649503737	367.08451449795785	24.18176411958112	-96.06758908816872	155.452559057774	69.29037767128284
745	3.72	-95.4296793369412	539.5807800963825	279.33462315216326	-243.4427528445275	367.0614668276063	24.19029488118493	-95.9877674968613	155.37244830253871	69.21957505881738
746	3.725	-95.38876869388413	539.5522892222974	279.3888520835199	-243.37718869914073	367.03741269559566	24.19899153577998	-95.90558473371655	155.2910176660223	69.1483624896659
747	3.73	-95.34806157893263	539.5236686674953	279.44262068708605	-243.31097706645613	367.01233997844474	24.207858051251584	-95.82099558541199	155.20828849011713	69.07681919533587
748	3.735	-95.30759776061792	539.4949477330637	279.4958870459389	-243.2441432978091	366.98624182517267	24.216897062148583	-95.73396513512098	155.12429042064025	69.00503198235438
749	3.74	-95.26741638201725	539.4661566746695	279.5486091589376	-243.17671831385525	366.9591169164236	24.226109763995538	-95.64446963618974	155.0390615319729	68.93309534718752
750	3.745	-95.22755599588656	539.4373267726766	279.6007450142535	-243.1087387969746	366.9309697034724	24.235495812458737	-95.55249735014749	154.9526484205975	68.86111158072706
751	3.75	-95.18805460316192	539.408490399859	279.6522526659874	-243.04024735768823	366.9018106258435	24.245053227829914	-95.45804934429046	154.8651062673548	68.78919086224258
752	3.755	-95.14894969460578	539.3796810864465	279.7030903137154	-242.97129267366805	366.87165630635775	24.254778305271696	-95.3611402442193	154.776498868379	68.71745134268048
753	3.76	-95.11027829536265	539.3509335822474	279.75321638478084	-242.90192960003628	366.8405297225015	24.26466553124769	-95.26179893686992	154.68689863480586	68.64601921717374
754	3.765	-95.07207701217901	539.3222839156123	279.80258961912904	-242.83221924977667	366.8084603531039	24.274707506537517	-95.16006921975914	154.59638656148468	68.57502878660793
755	3.77	-95.0343820830314	539.2937694490032	279.85116915645636	-242.76222904321168	366.77548429939844	24.284894876213258	-95.05601039236754	154.50505216506252	68.50462250807047
756	3.775	-94.99722942889815	539.2654289309534	279.89891462542914	-242.6920327256407	366.7416443796423	24.295216266928783	-94.94969778580301	154.41299339194396	68.43495103399223
757	3.78	-94.96065470740145	539.2373025442099	279.94578623470125	-242.62171035238183	366.7069901965667	24.305658231847346	-94.84122322712774	154.3203164967636	68.3661732397735
758	3.785	-94.92469336803909	539.2094319498674	279.9917448654442	-242.55134824061292	366.67157817703276	24.31620520350586	-94.73069543498981	154.22713589214106	68.29845623966978
759	3.79	-94.8893807087177	539.1818603273074	280.03675216508276	-242.48103888756762	366.6354715833742	24.326839454886354	-94.61824034347516	154.13357397061623	68.23197539069972
760	3.795	-94.8547519332932	539.1546324097794	280.0807706419108	-242.41088085480504	366.5987404960172	24.33754106893651	-94.50400135138699	154.03976089978835	68.166914284324
761	3.8	-94.8208422098195	539.1277945154644	280.1237637602485	-242.34097861844145	366.5614617670745	24.348287916751957	-94.38813949446654	153.94583439180354	68.10346472563472
762	3.805	-94.78768672920062	539.1013945738792	280.16569603578307	-242.27144238540308	366.52371894472753	24.359055644603032	-94.27083353838991	153.85193944845167	68.04182669978668
763	3.81	-94.75532076393898	539.0754821474931	280.20653313072694	-242.20238787593348	366.4856021683189	24.369817669958522	-94.15227999070964	153.7582280832429	67.98220832539725
764	3.815	-94.7237797266688	539.0501084484389	280.24624194841084	-242.13393607276458	366.447208034195	24.38054518662818	-94.03269303025607	153.66485902193963	67.92482579463945
765	3.82	-94.69309922816187	539.0253263502174	280.284790726924	-242.06621293753636	366.4086394324538	24.39120717911478	-93.91230435287002	153.5719973831154	67.86990329975332
766	3.825	-94.66331513449217	539.0011903943054	280.32214913140274	-241.99934909522688	366.37000535486595	24.401770446235204	-93.79136293270506	153.47981434040219	67.81767294570467
767	3.83	-94.63446362304471	538.9777567915905	280.35828834456623	-241.93347948752867	366.3314206743571	24.412199634038746	-93.67013469871083	153.38848676816878	67.76837464872673
768	3.835	-94.60658123705622	538.9550834185753	280.39318115509144	-241.86874299627985	366.29300589655105	24.4224572780194	-93.54890212629061	153.29819687244404	67.72225602049028
769	3.84	-94.57970493837536	538.933229808299	280.4268020434217	-241.80528203822755	366.2548868839906	24.43250385458742	-93.42796374451035	153.2091318089632	67.67957223765976
770	3.845	-94.55387215813403	538.912257135945	280.45912726460136	-241.74324213256634	366.2171945537659	24.44229784173423	-93.30763355962608	153.121483290267	67.6405858966093
771	3.85	-94.5291208450242	538.892228199119	280.49013492773616	-241.6827714428537	366.1800645493939	24.451795788793596	-93.18824039608648	153.0354471838267	67.60556685308967
772	3.855	-94.50548951088005	538.8732073927853	280.5198050716814	-241.62402029505822	366.1436368879017	24.460952395171205	-93.07012715655713	152.95122310320008	67.57479204665887
773	3.86	-94.48301727326964	538.8552606788794	280.54811973657183	-241.56714067364317	366.10805558317793	24.46972059788439	-92.95365000290099	152.86901399424494	67.54854530971186
774	3.865	-94.4617438948081	538.8384555506165	280.57506303081686	-241.51228569772493	366.0734682467614	24.478051667723605	-92.83917746043375	152.78902571842593	67.5271171609709
